<svg width="99" height="296" viewBox="0 0 99 296" fill="none" xmlns="http://www.w3.org/2000/svg">
<circle cx="-1.87366" cy="3.78948" r="5.45263" fill="white"/>
<circle cx="-1.87366" cy="22.8737" r="5.45263" fill="white"/>
<circle cx="-1.87366" cy="41.9579" r="5.45263" fill="white"/>
<circle cx="-1.87366" cy="61.0421" r="5.45263" fill="white"/>
<circle cx="-1.87366" cy="80.1263" r="5.45263" fill="white"/>
<circle cx="-1.87366" cy="99.2105" r="5.45263" fill="white"/>
<circle cx="-1.87366" cy="118.295" r="5.45263" fill="white"/>
<circle cx="-1.87366" cy="137.379" r="5.45263" fill="white"/>
<circle cx="-1.87366" cy="156.463" r="5.45263" fill="white"/>
<circle cx="-1.87366" cy="175.547" r="5.45263" fill="white"/>
<circle cx="-1.87366" cy="194.632" r="5.45263" fill="white"/>
<circle cx="-1.87366" cy="213.716" r="5.45263" fill="white"/>
<circle cx="-1.87366" cy="232.8" r="5.45263" fill="white"/>
<circle cx="-1.87366" cy="251.884" r="5.45263" fill="white"/>
<circle cx="-1.87366" cy="270.968" r="5.45263" fill="white"/>
<circle cx="-1.87366" cy="290.053" r="5.45263" fill="white"/>
<circle cx="17.2106" cy="3.78948" r="5.45263" fill="white"/>
<circle cx="17.2106" cy="22.8737" r="5.45263" fill="white"/>
<circle cx="17.2106" cy="41.9579" r="5.45263" fill="white"/>
<circle cx="17.2106" cy="61.0421" r="5.45263" fill="white"/>
<circle cx="17.2106" cy="80.1263" r="5.45263" fill="white"/>
<circle cx="17.2106" cy="99.2105" r="5.45263" fill="white"/>
<circle cx="17.2106" cy="118.295" r="5.45263" fill="white"/>
<circle cx="17.2106" cy="137.379" r="5.45263" fill="white"/>
<circle cx="17.2106" cy="156.463" r="5.45263" fill="white"/>
<circle cx="17.2106" cy="175.547" r="5.45263" fill="white"/>
<circle cx="17.2106" cy="194.632" r="5.45263" fill="white"/>
<circle cx="17.2106" cy="213.716" r="5.45263" fill="white"/>
<circle cx="17.2106" cy="232.8" r="5.45263" fill="white"/>
<circle cx="17.2106" cy="251.884" r="5.45263" fill="white"/>
<circle cx="17.2106" cy="270.968" r="5.45263" fill="white"/>
<circle cx="17.2106" cy="290.053" r="5.45263" fill="white"/>
<circle cx="36.2947" cy="3.78948" r="5.45263" fill="white"/>
<circle cx="36.2947" cy="22.8737" r="5.45263" fill="white"/>
<circle cx="36.2947" cy="41.9579" r="5.45263" fill="white"/>
<circle cx="36.2947" cy="61.0421" r="5.45263" fill="white"/>
<circle cx="36.2947" cy="80.1263" r="5.45263" fill="white"/>
<circle cx="36.2947" cy="99.2105" r="5.45263" fill="white"/>
<circle cx="36.2947" cy="118.295" r="5.45263" fill="white"/>
<circle cx="36.2947" cy="137.379" r="5.45263" fill="white"/>
<circle cx="36.2947" cy="156.463" r="5.45263" fill="white"/>
<circle cx="36.2947" cy="175.547" r="5.45263" fill="white"/>
<circle cx="36.2947" cy="194.632" r="5.45263" fill="white"/>
<circle cx="36.2947" cy="213.716" r="5.45263" fill="white"/>
<circle cx="36.2947" cy="232.8" r="5.45263" fill="white"/>
<circle cx="36.2947" cy="251.884" r="5.45263" fill="white"/>
<circle cx="36.2947" cy="270.968" r="5.45263" fill="white"/>
<circle cx="36.2947" cy="290.053" r="5.45263" fill="white"/>
<circle cx="55.3789" cy="3.78948" r="5.45263" fill="white"/>
<circle cx="55.3789" cy="22.8737" r="5.45263" fill="white"/>
<circle cx="55.3789" cy="41.9579" r="5.45263" fill="white"/>
<circle cx="55.3789" cy="61.0421" r="5.45263" fill="white"/>
<circle cx="55.3789" cy="80.1263" r="5.45263" fill="white"/>
<circle cx="55.3789" cy="99.2105" r="5.45263" fill="white"/>
<circle cx="55.3789" cy="118.295" r="5.45263" fill="white"/>
<circle cx="55.3789" cy="137.379" r="5.45263" fill="white"/>
<circle cx="55.3789" cy="156.463" r="5.45263" fill="white"/>
<circle cx="55.3789" cy="175.547" r="5.45263" fill="white"/>
<circle cx="55.3789" cy="194.632" r="5.45263" fill="white"/>
<circle cx="55.3789" cy="213.716" r="5.45263" fill="white"/>
<circle cx="55.3789" cy="232.8" r="5.45263" fill="white"/>
<circle cx="55.3789" cy="251.884" r="5.45263" fill="white"/>
<circle cx="55.3789" cy="270.968" r="5.45263" fill="white"/>
<circle cx="55.3789" cy="290.053" r="5.45263" fill="white"/>
<circle cx="74.4631" cy="3.78948" r="5.45263" fill="white"/>
<circle cx="74.4631" cy="22.8737" r="5.45263" fill="white"/>
<circle cx="74.4631" cy="41.9579" r="5.45263" fill="white"/>
<circle cx="74.4631" cy="61.0421" r="5.45263" fill="white"/>
<circle cx="74.4631" cy="80.1263" r="5.45263" fill="white"/>
<circle cx="74.4631" cy="99.2105" r="5.45263" fill="white"/>
<circle cx="74.4631" cy="118.295" r="5.45263" fill="white"/>
<circle cx="74.4631" cy="137.379" r="5.45263" fill="white"/>
<circle cx="74.4631" cy="156.463" r="5.45263" fill="white"/>
<circle cx="74.4631" cy="175.547" r="5.45263" fill="white"/>
<circle cx="74.4631" cy="194.632" r="5.45263" fill="white"/>
<circle cx="74.4631" cy="213.716" r="5.45263" fill="white"/>
<circle cx="74.4631" cy="232.8" r="5.45263" fill="white"/>
<circle cx="74.4631" cy="251.884" r="5.45263" fill="white"/>
<circle cx="74.4631" cy="270.968" r="5.45263" fill="white"/>
<circle cx="74.4631" cy="290.053" r="5.45263" fill="white"/>
<circle cx="93.5474" cy="3.78948" r="5.45263" fill="white"/>
<circle cx="93.5474" cy="22.8737" r="5.45263" fill="white"/>
<circle cx="93.5474" cy="41.9579" r="5.45263" fill="white"/>
<circle cx="93.5474" cy="61.0421" r="5.45263" fill="white"/>
<circle cx="93.5474" cy="80.1263" r="5.45263" fill="white"/>
<circle cx="93.5474" cy="99.2105" r="5.45263" fill="white"/>
<circle cx="93.5474" cy="118.295" r="5.45263" fill="white"/>
<circle cx="93.5474" cy="137.379" r="5.45263" fill="white"/>
<circle cx="93.5474" cy="156.463" r="5.45263" fill="white"/>
<circle cx="93.5474" cy="175.547" r="5.45263" fill="white"/>
<circle cx="93.5474" cy="194.632" r="5.45263" fill="white"/>
<circle cx="93.5474" cy="213.716" r="5.45263" fill="white"/>
<circle cx="93.5474" cy="232.8" r="5.45263" fill="white"/>
<circle cx="93.5474" cy="251.884" r="5.45263" fill="white"/>
<circle cx="93.5474" cy="270.968" r="5.45263" fill="white"/>
<circle cx="93.5474" cy="290.053" r="5.45263" fill="white"/>
</svg>
