<svg xmlns="http://www.w3.org/2000/svg" xmlns:xlink="http://www.w3.org/1999/xlink" viewBox="0 0 340.99 139.38"><defs><style>.cls-1{fill:#e50000;}.cls-2{fill:#fff;}.cls-3{stroke:#fff;stroke-miterlimit:10;stroke-width:2.49px;fill:url(#名称未設定グラデーション_7);}</style><linearGradient id="名称未設定グラデーション_7" x1="213.07" y1="59.16" x2="279.73" y2="59.16" gradientTransform="matrix(1.02, -0.16, -0.05, 0.99, 1.09, 28.38)" gradientUnits="userSpaceOnUse"><stop offset="0" stop-color="#f7931e"/><stop offset="1" stop-color="red"/></linearGradient></defs><g id="レイヤー_2" data-name="レイヤー 2"><g id="レイヤー_2-2" data-name="レイヤー 2"><polygon class="cls-1" points="96.5 122.57 0 139.38 0.5 100.08 97 83.27 96.5 122.57"/><path class="cls-2" d="M23.38,111.88a13.12,13.12,0,0,0,3.32,5.91,13.59,13.59,0,0,0,6.79,3.61,13.48,13.48,0,0,0-2,3.13A15.47,15.47,0,0,1,25.41,121a14,14,0,0,1-3.53-5.38,19.35,19.35,0,0,1-4.52,7.25,25.28,25.28,0,0,1-6.31,4.81,7.25,7.25,0,0,0-1.65-2.32,24,24,0,0,0,4.25-2.73,16.23,16.23,0,0,0,6.26-10.19l-6,.92a22.53,22.53,0,0,0-3.2.66l.17-3.14a19,19,0,0,0,3.21-.32l6.25-1c.12-1.24.17-1.64.24-2.93a14.34,14.34,0,0,0-.05-2.44l3.38-.52a17.52,17.52,0,0,0-.34,2.92c-.06,1-.11,1.59-.19,2.5l6.77-1a24.31,24.31,0,0,0,3.22-.66l-.17,3.13a24.12,24.12,0,0,0-3.18.32Z"/><path class="cls-2" d="M38.86,104.66c0-1,0-1.82,0-2.62a24.22,24.22,0,0,0,2.82-.31l12.36-1.89a21.18,21.18,0,0,0,2.76-.55,24.33,24.33,0,0,0-.26,2.54l-.87,16a24.55,24.55,0,0,0,0,3l-3.09.47.08-1.48L40.8,121.56,40.72,123l-3,.47a27.53,27.53,0,0,0,.32-3Zm2.57,5.39,11.87-1.81.31-5.74-11.87,1.82ZM40.94,119l11.87-1.82.35-6.32-11.87,1.81Z"/><path class="cls-2" d="M63.71,111.79A30.37,30.37,0,0,1,62.2,119l-1.94-.58a22.14,22.14,0,0,0,1.58-6.71Zm5.31-4,1-.16a15.47,15.47,0,0,0,2.13-.42,4.58,4.58,0,0,0-.1.94,53.63,53.63,0,0,1-1,7.21c-.37,1.62-.76,2.39-1.53,2.93a5.76,5.76,0,0,1-2.65.82l-.69.1,0-.29a4.4,4.4,0,0,0-.37-2.15,9.67,9.67,0,0,0,1.63-.1,1.31,1.31,0,0,0,1.33-1.16,23.44,23.44,0,0,0,.82-5.69l-5.37.82c-1,.15-1.61.27-2.27.42a19,19,0,0,0,.23-2.43l.42-7.61a29.68,29.68,0,0,0,.06-3,21.42,21.42,0,0,0,2.85-.32l4.52-.69a21.84,21.84,0,0,0,2.79-.55L72.76,99a14.34,14.34,0,0,0-2.13.21l-1.15.17-.08,1.48.84-.12a14.83,14.83,0,0,0,1.94-.4l-.11,2.17a17.24,17.24,0,0,0-1.94.2l-.84.13-.08,1.38.85-.12a14.83,14.83,0,0,0,1.94-.4l-.12,2.2a13.29,13.29,0,0,0-1.93.2l-.85.13Zm-3.64,3.52a33.26,33.26,0,0,1,.06,5.87l-1.64.47c.1-1,.12-1.44.17-2.3.09-1.63.09-2.17.07-3.64Zm1.75-11.61-1.94.3-.08,1.48,1.94-.3Zm-.19,3.46-1.94.3-.08,1.38,1.94-.3Zm-2.12,3.68-.09,1.61,1.94-.3.09-1.61ZM67,111a24.11,24.11,0,0,1,.56,4.69l-1.43.66a21.31,21.31,0,0,0-.34-4.87Zm1.55-.44a12.46,12.46,0,0,1,.71,3.15l-1.23.71A14.83,14.83,0,0,0,67.5,111Zm12.23-5.66a15.55,15.55,0,0,0,1.13,5.75,8.43,8.43,0,0,0,2.58,3.62A9.63,9.63,0,0,0,82.34,117a13.3,13.3,0,0,1-3-5c-.7-2-.84-3.06-1.05-6.72l-2.12.32a44,44,0,0,1-.93,6.93,21.7,21.7,0,0,1-2.25,5.9,5.48,5.48,0,0,0-2.26-1.17c2-3.3,2.66-6.51,3.24-17.25a26.33,26.33,0,0,0,.06-3.44A22.6,22.6,0,0,0,77,96.24l4.67-.71A23.36,23.36,0,0,0,84.43,95a19.42,19.42,0,0,0-.25,2.68L84,101.81a23.08,23.08,0,0,0,0,2.68,21.12,21.12,0,0,0-2.24.27Zm.51-2.41.25-4.62-4.9.75-.06,1.14-.11,1.9c0,.52-.07.85-.07.92l0,.67Z"/><path class="cls-2" d="M23.8,71.58a12.74,12.74,0,0,0,4.25,4,17.9,17.9,0,0,0,6.24,2.48A16.42,16.42,0,0,0,32.72,81a20.32,20.32,0,0,1-3.13-1.14l0,.63L29.26,86a16.71,16.71,0,0,0,0,2.68l-3,.47.07-1.23L16.59,89.4l-.07,1.23-3,.46a20.66,20.66,0,0,0,.3-2.73l.3-5.51,0-.6c-1.1.79-1.69,1.17-3.17,2.07A7.87,7.87,0,0,0,9.73,82a32.48,32.48,0,0,0,6.32-4.3A22.92,22.92,0,0,0,20.83,72Zm-3-2.88a23.62,23.62,0,0,1-4,4.34,29.4,29.4,0,0,1-4.39,3.2,7.66,7.66,0,0,0-1.69-2A31.5,31.5,0,0,0,15.6,70.9a13.4,13.4,0,0,0,3-3.49Zm6.34,9.84a17,17,0,0,1-4.92-4.36,33.59,33.59,0,0,1-5.44,5.95ZM16.72,87l9.74-1.49L26.7,81,17,82.51Zm9.9-20.82a10.61,10.61,0,0,0,3.79,3.05A17.92,17.92,0,0,0,34,70.51a20,20,0,0,0-1.77,2.76,19.08,19.08,0,0,1-7.93-5.18Z"/><path class="cls-2" d="M48.83,79.83a20.9,20.9,0,0,0,0,2.38l-2.75.42.07-1.32-6.75,1-.12,2.18-2.75.42a30.15,30.15,0,0,0,.34-3.43L37.61,68c.06-1.15.07-1.8,0-2.59.8,0,1.49-.13,2.74-.32l6.68-1c1.24-.19,1.92-.32,2.75-.52-.09.58-.14,1.06-.21,2l7.56-1.16a29.77,29.77,0,0,0,3.29-.65l-.15,2.88a23.38,23.38,0,0,0-3.05.34l-.79,14.48c-.07,1.26-.28,1.86-.82,2.32a5.62,5.62,0,0,1-2.85,1c-.73.11-2,.29-2.9.37a9.68,9.68,0,0,0-.42-2.59,29.67,29.67,0,0,0,3.09-.28c.86-.13,1-.26,1.07-.71l.77-14.1-4.95.75ZM40,72.29,42.09,72l.26-4.71-2.12.33Zm-.41,7.56,2.12-.32L42,74.42l-2.12.32Zm5-8.27,2.15-.33L47,66.54l-2.15.33Zm-.41,7.57,2.15-.33.27-5.11L44.45,74Z"/><path class="cls-2" d="M62.14,71.28a8,8,0,0,0,1.21-.11l.8-.12c.69-.9.91-1.21,1.53-2.1a18.88,18.88,0,0,0-3.3-3.14l1.47-2.37.9.84A18.69,18.69,0,0,0,67,59.78l2.46.52a11.83,11.83,0,0,0-.62,1.14,46.36,46.36,0,0,1-2.58,4.32l.9,1a31.66,31.66,0,0,0,2.66-4.61l2.24.85c-.33.53-.53.83-1,1.49-1.68,2.59-2.74,4.12-4.18,6,1.53-.34,2.13-.48,2.86-.66A14.81,14.81,0,0,0,69.15,68l1.95-1a22,22,0,0,1,1.38,4.41l-2.07,1.18c-.06-.31-.06-.31-.11-.7-1.1.29-1.1.29-1.93.49l-.43,7.92a13.71,13.71,0,0,0,0,2.61l-2.8.43a20.61,20.61,0,0,0,.3-2.68l.42-7.7c-.15,0-.49.1-1,.21a20.24,20.24,0,0,0-2.55.62Zm3,3.2c-.53,4.42-.78,5.73-1.48,7.8l-2.12-.74a24.71,24.71,0,0,0,1.38-7Zm5.54-1.3A31.32,31.32,0,0,1,71.27,78l-2.08.86a27.21,27.21,0,0,0-.37-5Zm2.15,1a9.67,9.67,0,0,0-1.51.33L71.47,72A7.64,7.64,0,0,0,73,71.85l1.77-.27A7.67,7.67,0,0,0,76,71.32l.87,1a4.88,4.88,0,0,0-.27.71,20,20,0,0,1-2.37,4.76,22.24,22.24,0,0,1-3.16,3.69,4.87,4.87,0,0,0-1.65-1.74A14.88,14.88,0,0,0,74,74Zm7.08-5.06A8.35,8.35,0,0,0,81,72,23.29,23.29,0,0,0,84,68.8l1.75,1.32a40.43,40.43,0,0,1-3.54,3.59A10.69,10.69,0,0,0,86,76.78a11.21,11.21,0,0,0-1.8,2.74,9.9,9.9,0,0,1-2.57-2.27,11.87,11.87,0,0,1-2.34-4.16c.07,1.5.09,2.57,0,3.34l-.1,2.18c-.06,1.6-1,2.36-3.22,2.71a.46.46,0,0,1-.16,0l-.67.11a5.53,5.53,0,0,1-.88.08,6.35,6.35,0,0,0-.56-2.42,13,13,0,0,0,2.11-.1c.65-.1.81-.25.84-.72l.47-8.72L75,69.87c-.91.14-1.84.3-2.57.49a22.83,22.83,0,0,0,.23-2.45l.25-4.53a22.76,22.76,0,0,0,0-2.44,21.77,21.77,0,0,0,2.51-.28l1.47-.23a15,15,0,0,0,.82-2.31l2.88,0c-.35.85-.56,1.27-.87,1.92l2.87-.44a20.32,20.32,0,0,0,2.52-.49,20.93,20.93,0,0,0-.24,2.53l-.25,4.51a19.82,19.82,0,0,0,0,2.39c-.72,0-1.57.14-2.45.27Zm-4.48-4.85,6.73-1,.09-1.58-6.74,1Zm-.2,3.53,6.74-1,.08-1.58-6.73,1Z"/><text/><path class="cls-2" d="M132.62,81.37l-8.07,1.24a53.54,53.54,0,0,0-5.48,1.09l.3-5.5a55.88,55.88,0,0,0,5.56-.59l8-1.23.31-5.65-6.37,1c-2,.3-3.77.62-5.43,1l.3-5.45a37.6,37.6,0,0,0,5.4-.57l6.37-1,0-.77a24.37,24.37,0,0,0,0-4.63l6.32-1A20.75,20.75,0,0,0,139.3,64l0,.87,6.79-1a43.65,43.65,0,0,0,5.48-1.1l-.29,5.45c-1.64.09-3.28.29-5.3.6l-7,1.07-.3,5.65,9.39-1.44a48.4,48.4,0,0,0,5.54-1.1l-.3,5.5c-1.75.11-3.54.28-5.51.58l-9.45,1.45L138,86.15l7-1.07A45,45,0,0,0,150.37,84l-.31,5.75a44.36,44.36,0,0,0-5.35.56l-7,1.07-.43,7.91a46.38,46.38,0,0,0,7.35-.62c2.07-.31,3.93-.7,8.19-1.61a28.35,28.35,0,0,0-1.91,6.15c-3.78.73-4.15.79-5.37,1-6.11.93-12.31.71-15.82-.59a14.25,14.25,0,0,1-5.87-4.35,43.37,43.37,0,0,1-5.84,10.62,18,18,0,0,0-4.31-3.11,28.36,28.36,0,0,0,.08,3.5l-6.11.94a47.8,47.8,0,0,0,.64-6l.48-8.73c.12-2.16.16-2.88.45-6.34a34.64,34.64,0,0,1-4.19,4.47A16,16,0,0,0,103,89.46a50.37,50.37,0,0,0,9.45-10,27.82,27.82,0,0,0,3-4.94L119.9,77c-.39.52-.39.52-1.66,2.44-.91,1.42-1.77,2.57-3.24,4.47l-1.13,20.75-.1,1.75a36.33,36.33,0,0,0,5.9-10.58,39.5,39.5,0,0,0,2.26-9.72l0-.46,5.79.08c-.32,1.07-.32,1.07-1.28,5.14-.14.63-.22,1-.61,2.44a10.87,10.87,0,0,0,5.83,5.12ZM120.45,65.05c-.28.35-.28.35-1.8,2.16a68.31,68.31,0,0,1-11.72,11.16,12.6,12.6,0,0,0-2.76-4.31A46.34,46.34,0,0,0,112,67.47a23.35,23.35,0,0,0,4-5Z"/><path class="cls-2" d="M174.26,77.55A53.46,53.46,0,0,1,160.69,91.7a17,17,0,0,0-3.75-3.6c5.79-3.79,9.85-7.88,12.53-12.51Zm26.05-12.49a48,48,0,0,0,5.86-1.2l-.31,5.7a48.65,48.65,0,0,0-5.82.59l-14.6,2.23-.56,10.27a5.09,5.09,0,0,1-2.83,4.56,14.94,14.94,0,0,1-4.81,1.35c-.64.1-3.19.44-4.4.57a14.46,14.46,0,0,0-1.2-5,52.46,52.46,0,0,0,5.23-.45c1.75-.26,2.19-.53,2.23-1.3l.5-9.1-15.29,2.34a53.93,53.93,0,0,0-6.07,1.23l.31-5.7a48.94,48.94,0,0,0,6-.61l2.13-.33.38-6.93a38.82,38.82,0,0,0,0-4.48l6.26-1a23.35,23.35,0,0,0-.56,4.57l-.38,6.93L180,68.16l.56-10.22a38.58,38.58,0,0,0,0-4.84l6.48-1a26.8,26.8,0,0,0-.56,4.47l0,1,10.77-1.65a45.59,45.59,0,0,0,5.54-1.15l-.3,5.44a38.07,38.07,0,0,0-5.5.59l-10.78,1.65-.26,4.82ZM196.9,83.31c-.89.9-.89.9-2.56,2.53a56.39,56.39,0,0,1-16.45,11.94,62.08,62.08,0,0,1-15.86,5,16,16,0,0,0-2.17-5.42c.74-.06,1.32-.15,1.69-.21a51.63,51.63,0,0,0,22.32-8.66,31.41,31.41,0,0,0,8.36-8.36Zm-2.59-11.52c2.57,3.12,7.05,5.9,12.12,7.52a44.83,44.83,0,0,0-4.23,5.23,38.61,38.61,0,0,1-12.71-9.31Z"/><path class="cls-3" d="M238.71,36.19c0,.49-.18,1.49-.48,3.19a32.82,32.82,0,0,1,16.69-7.22c9-1.38,16.28.23,21.37,4.71,4.79,4.23,7,10.22,6.53,18.46-1,18.84-14.42,32-35.92,35.27-12.67,1.94-22.59-.73-28-7.68-2.16-2.78-3.23-5.35-4.47-10.22l20.55-6.16c1.37,6.22,5.46,8.61,12.77,7.49,8.52-1.3,14.48-7.37,14.91-15.22S257.85,46.69,249.33,48c-6.39,1-10.68,4.06-13.18,9.21l-18.77,1.12c.57-3,1-5.41,1.46-8.2l4.41-31c.31-2.09.54-4.46.85-8.2,4.24-.46,5.26-.61,10.13-1.36L264.55,4.9a139.35,139.35,0,0,0,16.77-3.25l-.93,17.18c-5.35.32-10,.84-16.5,1.83l-23.53,3.6Z"/><path class="cls-2" d="M305.19,49.81a40.63,40.63,0,0,0-4.52.95l.19-3.65a70.6,70.6,0,0,1-6.94,6.72,13.17,13.17,0,0,0-3.82-4.41c6.83-5.43,11-10.25,14.77-16.88A19.32,19.32,0,0,0,307.28,27l6.25,1.24A17.76,17.76,0,0,0,312,31.1a75.43,75.43,0,0,1-9.23,13.79,25,25,0,0,0,2.76-.32l19.53-3c1.28-.2,2-.31,3.3-.56a38.08,38.08,0,0,1-8.06-11.55,16.67,16.67,0,0,0-1-2l6-3.11a14.79,14.79,0,0,0,1.83,4.15c3.16,5.63,7.48,9.56,13.89,12.65a32,32,0,0,0-4.34,6.17A40.25,40.25,0,0,1,330.36,43l-.09,1.75c-.58,10.63-1.93,18.88-3.4,21.81-1.3,2.43-3.25,3.45-8,4.17-1.06.16-1.91.24-5.46.63a18.48,18.48,0,0,0-1.26-5.77,43.67,43.67,0,0,0,6.38-.31c2-.3,2.56-.6,3.08-1.44.88-1.66,2.1-8.57,2.39-13.91l.07-1.13,0-.78.06-1.07L314,48.46a31.91,31.91,0,0,1-4.85,13.79C306,67.42,301.48,71.62,295,75.61a13.32,13.32,0,0,0-3.6-4.44,33.1,33.1,0,0,0,8.49-6,25.57,25.57,0,0,0,7.59-12.77,26.26,26.26,0,0,0,.49-3Z"/></g></g></svg>