<svg xmlns="http://www.w3.org/2000/svg" xmlns:xlink="http://www.w3.org/1999/xlink" viewBox="0 0 215.63 94.06"><defs><style>.cls-1{stroke:#fff;stroke-miterlimit:10;stroke-width:2px;fill:url(#名称未設定グラデーション_7);}.cls-2{fill:#fff;}</style><linearGradient id="名称未設定グラデーション_7" x1="122.38" y1="37.86" x2="174.15" y2="37.86" gradientUnits="userSpaceOnUse"><stop offset="0" stop-color="#f7931e"/><stop offset="1" stop-color="red"/></linearGradient></defs><g id="レイヤー_2" data-name="レイヤー 2"><g id="レイヤー_1-2" data-name="レイヤー 1"><path class="cls-1" d="M174,34.46q-.9,16.56-8.24,27.39T147,74.39Q134.51,76.28,128,67.53T122.5,41.25q.91-16.6,8.43-27.33t19.54-12.6q12-1.84,18.28,7T174,34.46ZM154.55,37.3q1.13-20.44-5.26-19.47T142,37.09Q140.76,59,147,58c2.24-.34,4-2.19,5.2-5.53S154.18,44.07,154.55,37.3Z"/><path class="cls-2" d="M12.05,65.28c-1.32.2-2.67.48-4.33.88L8,60.38A29.06,29.06,0,0,0,12.27,60l7-1.06c1.35-.21,2.33-.4,3.35-.66-.09,1-.17,1.65-.2,2.34a24.35,24.35,0,0,0,3.94,15.19,21.23,21.23,0,0,0,9.9,7.6,24,24,0,0,0-4.44,6.38,24.78,24.78,0,0,1-7.31-5.48A21,21,0,0,1,19,74.39a37.35,37.35,0,0,1-6,11,45,45,0,0,1-9.19,8.65A13,13,0,0,0,0,89.44a36.17,36.17,0,0,0,6.63-5.38A33.54,33.54,0,0,0,14.18,72a35.59,35.59,0,0,0,1.63-7.28Z"/><path class="cls-2" d="M46.41,66.55A43.76,43.76,0,0,1,41,69.83a18.28,18.28,0,0,0-2.52-4.91,37.78,37.78,0,0,0,8.86-5.32A30,30,0,0,0,54,52.74l6.09-.93a16,16,0,0,0,6,4.63,26.83,26.83,0,0,0,8.76,2.66,30.22,30.22,0,0,0-2.94,6.15,28.6,28.6,0,0,1-5.46-1.8l-.11,2.07c-1.12.07-2,.17-3.56.4l-13,2c-1.24.19-2.45.41-3.54.69Zm-2.19,9.31a46.19,46.19,0,0,0-4.59.92l.3-5.56c1.31-.09,2.85-.25,4.57-.52l23.6-3.61c1.8-.27,3.2-.56,4.56-.87l-.31,5.56a38.61,38.61,0,0,0-4.53.48l-3.72.57A58.67,58.67,0,0,1,71.52,81l-5.36,3.89-1.62-2.42c-4.38,1.13-4.38,1.13-6.46,1.63-2.49.64-12.68,3-14.26,3.34-1.33.31-2.38.58-3.33.87l-.38-6c1-.07,1.64-.14,2.47-.27C43,82,43,82,45.21,81.59a56.38,56.38,0,0,0,3.6-6.43ZM61.86,61.2a20.24,20.24,0,0,1-5-4,35.77,35.77,0,0,1-5.56,5.64Zm-6.44,13a59.36,59.36,0,0,1-3.58,6.25c5.5-1.06,5.5-1.06,9.42-2-1-1.07-1.48-1.57-3-3L62.78,73Z"/><path class="cls-2" d="M88.66,61.14c-1.47.22-2.6.43-3.88.74l.09-1.75A54.5,54.5,0,0,1,78.59,64a20.83,20.83,0,0,0-2.53-4.92,41.49,41.49,0,0,0,10.38-6.48,24.88,24.88,0,0,0,5-5.5l6.43-1A14.2,14.2,0,0,0,102.49,50a23.45,23.45,0,0,0,9.81,3.26,34.66,34.66,0,0,0-2.9,6.11,32.51,32.51,0,0,1-6.33-2.14L103,59.1a37.76,37.76,0,0,0-3.9.45l-2.33.36-.13,2.36L105.17,61a41.23,41.23,0,0,0,4.45-.86l-.3,5.38a35.65,35.65,0,0,0-4.49.47l-3,.45,4.76.9a51.36,51.36,0,0,1-3.18,5.6l2-.29a45.92,45.92,0,0,0,4.7-.94l-.29,5.45c-1.42.08-3.15.27-4.84.53L81.15,81.29c-2,.3-3.61.62-5.12,1l.29-5.46a51,51,0,0,0,5.07-.55l1.16-.18a16.11,16.11,0,0,0-2.34-4.83L85.14,69l-2.78.43a40.88,40.88,0,0,0-4.52.9l.29-5.38a36.3,36.3,0,0,0,4.54-.51l8.11-1.24.13-2.36Zm1.85,7-4.73.72a24.55,24.55,0,0,1,2.41,5L83.41,76l6.73-1Zm8.1-13.24a17.37,17.37,0,0,1-4.17-3.44,30.39,30.39,0,0,1-4.55,4.77Zm4,18.14-4.51-.79a24.7,24.7,0,0,0,3.07-5.74l-4.81.74L96,74.05Z"/><path class="cls-2" d="M187.64,62.63a30.88,30.88,0,0,0-.06,4.55l-6.27,1a37.69,37.69,0,0,0,.52-4.8l1.32-24.17a32.23,32.23,0,0,0,0-3.73c1.39-.1,2.47-.23,4.92-.6l22.77-3.48c2.52-.39,3.72-.61,4.74-.87a34.44,34.44,0,0,0-.44,4.61l-1.28,23.48a4.66,4.66,0,0,1-2.81,4.36,18.09,18.09,0,0,1-4.23,1c-1,.15-2.55.35-4.31.58a14.73,14.73,0,0,0-1.44-5.11c2.47-.16,4.15-.31,5.28-.49,1.47-.22,1.78-.41,1.81-1.06l.37-6.73L188.1,54.27Zm8.46-23.79L188.88,40l-.5,9.16L195.6,48ZM208.86,46l.5-9.16L201.77,38l-.5,9.16Z"/></g></g></svg>