<svg width="122" height="122" viewBox="0 0 122 122" fill="none" xmlns="http://www.w3.org/2000/svg">
<circle cx="11.7087" cy="60.8848" r="8.27924" transform="rotate(-45 11.7087 60.8848)" fill="#B3424A"/>
<circle cx="28.1008" cy="77.2766" r="8.27924" transform="rotate(-45 28.1008 77.2766)" fill="#B3424A"/>
<circle cx="44.4929" cy="93.6689" r="8.27924" transform="rotate(-45 44.4929 93.6689)" fill="#B3424A"/>
<circle cx="60.8849" cy="110.061" r="8.27924" transform="rotate(-45 60.8849 110.061)" fill="#B3424A"/>
<circle cx="28.1008" cy="44.4929" r="8.27924" transform="rotate(-45 28.1008 44.4929)" fill="#B3424A"/>
<circle cx="44.4929" cy="60.8848" r="8.27924" transform="rotate(-45 44.4929 60.8848)" fill="#B3424A"/>
<circle cx="60.8849" cy="77.2766" r="8.27924" transform="rotate(-45 60.8849 77.2766)" fill="#B3424A"/>
<circle cx="77.277" cy="93.6689" r="8.27924" transform="rotate(-45 77.277 93.6689)" fill="#B3424A"/>
<circle cx="44.4929" cy="28.1006" r="8.27924" transform="rotate(-45 44.4929 28.1006)" fill="#B3424A"/>
<circle cx="60.8849" cy="44.4929" r="8.27924" transform="rotate(-45 60.8849 44.4929)" fill="#B3424A"/>
<circle cx="77.277" cy="60.8848" r="8.27924" transform="rotate(-45 77.277 60.8848)" fill="#B3424A"/>
<circle cx="93.6691" cy="77.2766" r="8.27924" transform="rotate(-45 93.6691 77.2766)" fill="#B3424A"/>
<circle cx="60.8849" cy="11.7085" r="8.27924" transform="rotate(-45 60.8849 11.7085)" fill="#B3424A"/>
<circle cx="77.277" cy="28.1006" r="8.27924" transform="rotate(-45 77.277 28.1006)" fill="#B3424A"/>
<circle cx="93.6691" cy="44.4929" r="8.27924" transform="rotate(-45 93.6691 44.4929)" fill="#B3424A"/>
<circle cx="110.061" cy="60.8848" r="8.27924" transform="rotate(-45 110.061 60.8848)" fill="#B3424A"/>
</svg>
